<?xml version="1.0" encoding="UTF-8" standalone="no"?>
<!-- Created with Inkscape (http://www.inkscape.org/) -->

<svg
   width="105.66676mm"
   height="214.73639mm"
   viewBox="0 0 105.66676 214.73639"
   version="1.1"
   id="svg5"
   xmlns:xlink="http://www.w3.org/1999/xlink"
   xmlns="http://www.w3.org/2000/svg"
   xmlns:svg="http://www.w3.org/2000/svg">
  <defs
     id="defs2">
    <path
       d="M 3.181716,0.27419317 C 1.5784924,1.1709661 0.49301007,2.8822541 0.49301007,4.8499933 V 47.457999 c 0,1.967739 1.08548233,3.679027 2.68870593,4.5758 V 0.27419317"
       id="path-1-2" />
    <path
       d="M 3.181716,0.27419317 C 1.5784924,1.1709661 0.49301007,2.8822541 0.49301007,4.8499933 V 47.457999 c 0,1.967739 1.08548233,3.679027 2.68870593,4.5758 V 0.27419317"
       id="path-3-71" />
    <path
       d="M 3.181716,0.27419317 C 1.5784924,1.1709661 0.49301007,2.8822541 0.49301007,4.8499933 V 47.457999 c 0,1.967739 1.08548233,3.679027 2.68870593,4.5758 V 0.27419317"
       id="path-5-0" />
    <path
       d="M 3.181716,0.43171983 C 1.5784924,1.3268799 0.49301007,3.0397807 0.49301007,5.0075199 V 47.615525 c 0,1.966127 1.08548233,3.679028 2.68870593,4.574187 V 0.43171983"
       id="path-7-0" />
    <path
       d="M 3.181716,0.43171983 C 1.5784924,1.3268799 0.49301007,3.0397807 0.49301007,5.0075199 V 47.615525 c 0,1.966127 1.08548233,3.679028 2.68870593,4.574187 V 0.43171983"
       id="path-9-9" />
    <path
       d="M 3.181716,0.43171983 C 1.5784924,1.3268799 0.49301007,3.0397807 0.49301007,5.0075199 V 47.615525 c 0,1.966127 1.08548233,3.679028 2.68870593,4.574187 V 0.43171983"
       id="path-11-7" />
    <path
       d="M 0.40107471,52.280035 C 2.0042983,51.383262 3.0897807,49.671974 3.0897807,47.704235 V 5.0962295 c 0,-1.9677392 -1.0854824,-3.6790272 -2.68870599,-4.57580012 V 52.280035"
       id="path-13-1" />
    <path
       d="M 68.948829,31.442967 H 15.723097 c -8.5967628,0 -15.59191439,-6.996764 -15.59191439,-15.593527 0,-8.5967619 6.99515159,-15.59030057 15.59191439,-15.59030057 h 53.225732 c 8.596762,0 15.590301,6.99353867 15.590301,15.59030057 0,8.596763 -6.993539,15.593527 -15.590301,15.593527"
       id="path-15-7" />
    <path
       d="M 154.58527,1.4741915 H 1.5935462 c 2.3387064,0.040322 4.7935417,0.085484 7.41128,0.1322579 H 147.1756 c 2.61613,-0.046774 5.07096,-0.091935 7.40967,-0.1322579"
       id="path-17-4" />
    <path
       d="M 154.58527,1.4741915 H 1.5935462 c 2.3387064,0.040322 4.7935417,0.085484 7.41128,0.1322579 H 147.1756 c 2.61613,-0.046774 5.07096,-0.091935 7.40967,-0.1322579"
       id="path-19-5" />
    <path
       d="M 154.58527,1.4741915 H 1.5935462 c 2.3387064,0.040322 4.7935417,0.085484 7.41128,0.1322579 H 147.1756 c 2.61613,-0.046774 5.07096,-0.091935 7.40967,-0.1322579"
       id="path-21-1" />
    <path
       d="M 154.58527,1.4741915 H 1.5935462 c 2.3387064,0.040322 4.7935417,0.085484 7.41128,0.1322579 H 147.1756 c 2.61613,-0.046774 5.07096,-0.091935 7.40967,-0.1322579"
       id="path-23-78" />
    <path
       d="M 154.58527,1.4741915 H 1.5935462 c 2.3387064,0.040322 4.7935417,0.085484 7.41128,0.1322579 H 147.1756 c 2.61613,-0.046774 5.07096,-0.091935 7.40967,-0.1322579"
       id="path-25-2" />
  </defs>
  <g
     id="layer13"
     transform="translate(-693.69318,-682.91571)"
     style="display:inline">
    <g
       id="Android-light"
       transform="matrix(0.26458333,0,0,0.26458333,693.56274,683.29466)"
       style="display:inline;fill:none;fill-rule:evenodd;stroke:none;stroke-width:1">
      <g
         id="S6-White">
        <g
           id="Group-10-5"
           transform="translate(0,128.03208)">
          <g
             id="Group-3-4">
            <mask
               id="mask-2-5"
               fill="#ffffff">
              <use
                 xlink:href="#path-1-2"
                 id="use24718"
                 x="0"
                 y="0"
                 width="100%"
                 height="100%" />
            </mask>
            <use
               id="Clip-2-3"
               fill="#000000"
               xlink:href="#path-1-2"
               x="0"
               y="0"
               width="100%"
               height="100%" />
            <path
               d="M 3.181716,0.27419317 C 1.5784924,1.1709661 0.49301007,2.8822541 0.49301007,4.8499933 V 47.457999 c 0,1.967739 1.08548233,3.679027 2.68870593,4.5758 V 0.27419317"
               id="Fill-1-01"
               mask="url(#mask-2-5)" />
          </g>
          <g
             id="Group-6-9">
            <mask
               id="mask-4-4"
               fill="#ffffff">
              <use
                 xlink:href="#path-3-71"
                 id="use24724"
                 x="0"
                 y="0"
                 width="100%"
                 height="100%" />
            </mask>
            <use
               id="Clip-5-5"
               fill="#4a4a4a"
               xlink:href="#path-3-71"
               x="0"
               y="0"
               width="100%"
               height="100%" />
            <path
               d="M 3.181716,0.27419317 C 1.5784924,1.1709661 0.49301007,2.8822541 0.49301007,4.8499933 V 47.457999 c 0,1.967739 1.08548233,3.679027 2.68870593,4.5758 V 0.27419317"
               id="Fill-4-9"
               mask="url(#mask-4-4)" />
          </g>
          <g
             id="Group-9-3">
            <mask
               id="mask-6-9"
               fill="#ffffff">
              <use
                 xlink:href="#path-5-0"
                 id="use24730"
                 x="0"
                 y="0"
                 width="100%"
                 height="100%" />
            </mask>
            <use
               id="Clip-8-6"
               fill="#d8d8d8"
               xlink:href="#path-5-0"
               x="0"
               y="0"
               width="100%"
               height="100%" />
            <path
               d="M 3.181716,0.27419317 C 1.5784924,1.1709661 0.49301007,2.8822541 0.49301007,4.8499933 V 47.457999 c 0,1.967739 1.08548233,3.679027 2.68870593,4.5758 V 0.27419317"
               id="Fill-7-6"
               mask="url(#mask-6-9)" />
          </g>
        </g>
        <g
           id="Group-30-4"
           transform="translate(0,209.21476)">
          <g
             id="Group-23-0">
            <mask
               id="mask-8-8"
               fill="#ffffff">
              <use
                 xlink:href="#path-7-0"
                 id="use24737"
                 x="0"
                 y="0"
                 width="100%"
                 height="100%" />
            </mask>
            <g
               id="Clip-22-2" />
            <path
               d="M 3.181716,0.43171983 C 1.5784924,1.3268799 0.49301007,3.0397807 0.49301007,5.0075199 V 47.615525 c 0,1.966127 1.08548233,3.679028 2.68870593,4.574187 V 0.43171983"
               id="Fill-21-0"
               mask="url(#mask-8-8)" />
          </g>
          <g
             id="Group-26-6">
            <mask
               id="mask-10-0"
               fill="#ffffff">
              <use
                 xlink:href="#path-9-9"
                 id="use24743"
                 x="0"
                 y="0"
                 width="100%"
                 height="100%" />
            </mask>
            <use
               id="Clip-25-7"
               fill="#d8d8d8"
               xlink:href="#path-9-9"
               x="0"
               y="0"
               width="100%"
               height="100%" />
            <path
               d="M 3.181716,0.43171983 C 1.5784924,1.3268799 0.49301007,3.0397807 0.49301007,5.0075199 V 47.615525 c 0,1.966127 1.08548233,3.679028 2.68870593,4.574187 V 0.43171983"
               id="Fill-24-2"
               mask="url(#mask-10-0)" />
          </g>
          <g
             id="Group-29-9">
            <mask
               id="mask-12-8"
               fill="#ffffff">
              <use
                 xlink:href="#path-11-7"
                 id="use24749"
                 x="0"
                 y="0"
                 width="100%"
                 height="100%" />
            </mask>
            <g
               id="Clip-28-1" />
            <path
               d="M 3.181716,0.43171983 C 1.5784924,1.3268799 0.49301007,3.0397807 0.49301007,5.0075199 V 47.615525 c 0,1.966127 1.08548233,3.679028 2.68870593,4.574187 V 0.43171983"
               id="Fill-27-1"
               mask="url(#mask-12-8)" />
          </g>
        </g>
        <g
           id="Group-50-6"
           transform="translate(396.23601,294.62325)">
          <g
             id="Group-46-1"
             transform="translate(0.537634,0.075267)">
            <mask
               id="mask-14-1"
               fill="#ffffff">
              <use
                 xlink:href="#path-13-1"
                 id="use24756"
                 x="0"
                 y="0"
                 width="100%"
                 height="100%" />
            </mask>
            <use
               id="Clip-45-8"
               fill="#d8d8d8"
               xlink:href="#path-13-1"
               x="0"
               y="0"
               width="100%"
               height="100%" />
            <path
               d="M 0.40107471,52.280035 C 2.0042983,51.383262 3.0897807,49.671974 3.0897807,47.704235 V 5.0962295 c 0,-1.9677392 -1.0854824,-3.6790272 -2.68870599,-4.57580012 V 52.280035"
               id="Fill-44-1"
               mask="url(#mask-14-1)" />
          </g>
        </g>
        <path
           d="m 116.10414,808.41178 c -21.704809,-0.36774 -30.688667,-0.52258 -44.653164,-1.44355 -0.953224,-0.0613 -23.346742,-1.58387 -32.095117,-5.28547 -6.914506,-2.92258 -13.122562,-7.10967 -18.4532,-12.43708 C 15.572021,783.91343 11.388156,777.70376 8.4623539,770.79248 5.4333258,763.62636 3.8962312,756.02153 3.8962312,748.18606 V 60.549915 c 0,-7.832248 1.5370946,-15.437076 4.5661227,-22.601582 C 11.388156,31.033826 15.572021,24.824158 20.902659,19.49352 26.231684,14.164495 32.43974,9.979017 39.355859,7.0532146 48.117137,3.3467682 70.500977,1.8322541 71.449363,1.769351 85.423537,0.84677163 94.41546,0.69354604 116.14285,0.32419171 l 14.75966,-0.25483836 138.31593,-0.0016129 14.90321,0.25645126 c 21.72739,0.36935433 30.71931,0.52257992 44.69348,1.44515929 0.94839,0.062903 23.33223,1.5774172 32.0919,5.2838636 6.91773,2.9258024 13.12578,7.1112804 18.45481,12.4403054 5.33064,5.330638 9.51611,11.540306 12.4403,18.4532 3.02903,7.166119 4.56613,14.770947 4.56613,22.603195 V 748.18606 c 0,7.83547 -1.5371,15.4403 -4.56613,22.60319 -2.92419,6.91451 -7.10966,13.12418 -12.43869,18.4532 -5.33225,5.33064 -11.54031,9.51773 -18.45642,12.44031 -8.74677,3.7016 -31.14028,5.22418 -32.09028,5.28547 -13.96773,0.92097 -22.95158,1.07581 -44.65639,1.44355 l -14.86934,0.25806 H 131.04767 Z"
           id="Fill-62-1"
           stroke="#d8d8d8"
           stroke-width="3" />
        <path
           d="M 96.113845,758.0812 H 78.388063 c -0.527418,0 -0.95645,0.42904 -0.95645,0.95807 v 0.95806 7.93063 0.95807 c 0,0.52903 0.429032,0.95806 0.95645,0.95806 h 17.725782 c 0.527419,0 0.958063,-0.42903 0.958063,-0.95806 v -0.95807 -7.93063 -0.95806 c 0,-0.52903 -0.430644,-0.95807 -0.958063,-0.95807 m -0.95645,3.24194 v 6.60482 H 79.344514 v -7.93063 h 15.812881 v 1.32581"
           id="Fill-81-5"
           fill="#d8d8d8" />
        <path
           d="m 99.918678,754.25379 -0.1,0.0194 -0.09839,-0.0194 H 82.923541 c -0.527419,0 -0.956451,0.42742 -0.956451,0.95484 v 0.95645 h 16.993525 v 9.57095 h 0.958063 c 0.527422,0 0.956452,-0.42903 0.956452,-0.95483 v -9.57257 c 0,-0.52742 -0.42903,-0.95484 -0.956452,-0.95484"
           id="Fill-82-0"
           fill="#d8d8d8" />
        <path
           d="m 320.21515,758.92475 h -7.24838 v -2.44677 l -7.45967,2.60161 c 0,0 -0.6758,0.19839 -0.6758,0.81613 0,0.63871 0.6758,0.85645 0.6758,0.85645 l 7.45967,2.59677 v -2.53709 h 7.24838 c 2.15806,0 3.91128,1.75806 3.91128,3.91612 0,2.15483 -1.75322,3.9129 -3.91128,3.9129 h -13.50482 v 1.88709 h 13.50482 c 3.20322,0 5.79999,-2.6 5.79999,-5.79999 0,-3.20322 -2.59677,-5.80322 -5.79999,-5.80322"
           id="Fill-83-0"
           fill="#d8d8d8" />
        <path
           d="m 227.55076,783.39891 h -53.22573 c -10.82096,0 -19.62417,-8.80483 -19.62417,-19.62578 0,-10.81772 8.80321,-19.62255 19.62417,-19.62255 h 53.22573 c 10.82095,0 19.62255,8.80483 19.62255,19.62255 0,10.82095 -8.8016,19.62578 -19.62255,19.62578 z m -53.22573,-37.63543 c -9.93064,0 -18.01127,8.08063 -18.01127,18.00965 0,9.93225 8.08063,18.01288 18.01127,18.01288 h 53.22573 c 9.93063,0 18.00965,-8.08063 18.00965,-18.01288 0,-9.92902 -8.07902,-18.00965 -18.00965,-18.00965 z"
           id="Fill-106-8"
           fill="#d8d8d8"
           opacity="0.488281" />
        <path
           d="m 301.9813,30.711246 c 0,4.899994 -3.97096,8.870956 -8.87095,8.870956 -4.9,0 -8.87096,-3.970962 -8.87096,-8.870956 0,-4.89838 3.97096,-8.870955 8.87096,-8.870955 4.89999,0 8.87095,3.972575 8.87095,8.870955"
           id="Fill-107-3"
           fill="#d8d8d8" />
        <path
           d="m 131.4138,30.445118 c 0,3.862898 -3.13226,6.996764 -6.99677,6.996764 -3.86451,0 -6.99676,-3.133866 -6.99676,-6.996764 0,-3.864511 3.13225,-6.998378 6.99676,-6.998378 3.86451,0 6.99677,3.133867 6.99677,6.998378"
           id="Fill-119-7"
           fill="#d8d8d8" />
        <path
           d="m 142.46378,37.441882 c -3.8629,0 -6.99676,-3.133866 -6.99676,-6.996764 0,-3.864511 3.13386,-6.998378 6.99676,-6.998378 3.86451,0 6.99676,3.133867 6.99676,6.998378 0,3.862898 -3.13225,6.996764 -6.99676,6.996764 z"
           id="Fill-122-0"
           fill="#d8d8d8" />
        <path
           d="m 166.79762,35.617691 c -2.89032,0 -5.24193,-2.35161 -5.24193,-5.241928 0,-2.890319 2.35161,-5.241928 5.24193,-5.241928 h 67.60797 c 2.89032,0 5.24193,2.351609 5.24193,5.241928 0,2.890318 -2.35161,5.241928 -5.24193,5.241928 h -67.60797"
           id="Fill-125-1"
           fill="#d8d8d8" />
        <g
           id="Group-149-3"
           transform="translate(158.60193,747.92369)">
          <mask
             id="mask-16-4"
             fill="#ffffff">
            <use
               xlink:href="#path-15-7"
               id="use24772"
               x="0"
               y="0"
               width="100%"
               height="100%" />
          </mask>
          <g
             id="Clip-148-3" />
          <path
             d="M 68.948829,31.442967 H 15.723097 c -8.5967628,0 -15.59191439,-6.996764 -15.59191439,-15.593527 0,-8.5967619 6.99515159,-15.59030057 15.59191439,-15.59030057 h 53.225732 c 8.596762,0 15.590301,6.99353867 15.590301,15.59030057 0,8.596763 -6.993539,15.593527 -15.590301,15.593527"
             id="Fill-147-7"
             mask="url(#mask-16-4)" />
        </g>
        <g
           id="Group-218-7"
           transform="translate(122.04284,798.99889)">
          <g
             id="Group-205-5">
            <mask
               id="mask-18-1"
               fill="#ffffff">
              <use
                 xlink:href="#path-17-4"
                 id="use24778"
                 x="0"
                 y="0"
                 width="100%"
                 height="100%" />
            </mask>
            <g
               id="Clip-204-2" />
            <path
               d="M 154.58527,1.4741915 H 1.5935462 c 2.3387064,0.040322 4.7935417,0.085484 7.41128,0.1322579 H 147.1756 c 2.61613,-0.046774 5.07096,-0.091935 7.40967,-0.1322579"
               id="Fill-203-6"
               mask="url(#mask-18-1)" />
          </g>
          <g
             id="Group-208-6">
            <mask
               id="mask-20-5"
               fill="#ffffff">
              <use
                 xlink:href="#path-19-5"
                 id="use24784"
                 x="0"
                 y="0"
                 width="100%"
                 height="100%" />
            </mask>
            <g
               id="Clip-207-4" />
            <path
               d="M 154.58527,1.4741915 H 1.5935462 c 2.3387064,0.040322 4.7935417,0.085484 7.41128,0.1322579 H 147.1756 c 2.61613,-0.046774 5.07096,-0.091935 7.40967,-0.1322579"
               id="Fill-206-1"
               mask="url(#mask-20-5)" />
          </g>
          <g
             id="Group-211-7">
            <mask
               id="mask-22-1"
               fill="#ffffff">
              <use
                 xlink:href="#path-21-1"
                 id="use24790"
                 x="0"
                 y="0"
                 width="100%"
                 height="100%" />
            </mask>
            <g
               id="Clip-210-3" />
            <path
               d="M 154.58527,1.4741915 H 1.5935462 c 2.3387064,0.040322 4.7935417,0.085484 7.41128,0.1322579 H 147.1756 c 2.61613,-0.046774 5.07096,-0.091935 7.40967,-0.1322579"
               id="Fill-209-4"
               mask="url(#mask-22-1)" />
          </g>
          <g
             id="Group-214-8">
            <mask
               id="mask-24-6"
               fill="#ffffff">
              <use
                 xlink:href="#path-23-78"
                 id="use24796"
                 x="0"
                 y="0"
                 width="100%"
                 height="100%" />
            </mask>
            <g
               id="Clip-213-1" />
            <path
               d="M 154.58527,1.4741915 H 1.5935462 c 2.3387064,0.040322 4.7935417,0.085484 7.41128,0.1322579 H 147.1756 c 2.61613,-0.046774 5.07096,-0.091935 7.40967,-0.1322579"
               id="Fill-212-5"
               mask="url(#mask-24-6)" />
          </g>
          <g
             id="Group-217-0">
            <mask
               id="mask-26-6"
               fill="#ffffff">
              <use
                 xlink:href="#path-25-2"
                 id="use24802"
                 x="0"
                 y="0"
                 width="100%"
                 height="100%" />
            </mask>
            <g
               id="Clip-216-5" />
            <path
               d="M 154.58527,1.4741915 H 1.5935462 c 2.3387064,0.040322 4.7935417,0.085484 7.41128,0.1322579 H 147.1756 c 2.61613,-0.046774 5.07096,-0.091935 7.40967,-0.1322579"
               id="Fill-215-3"
               mask="url(#mask-26-6)" />
          </g>
        </g>
        <path
           d="m 319.82966,799.4134 c -8.41934,0.42097 -16.38062,0.59678 -29.08383,0.81936 -0.005,0 -0.0129,0 -0.0194,0.002 12.70966,-0.22258 20.679,-0.39838 29.10318,-0.82097 m 0.05,-0.002 h -0.0129 0.0129"
           id="Fill-219-1"
           fill="#041326" />
      </g>
      <rect
         id="Rectangle-7-Copy"
         stroke="#c8c8c8"
         fill="#ffffff"
         x="21.5"
         y="84.5"
         width="359"
         height="639" />
    </g>
  </g>
</svg>
