<?xml version="1.0" encoding="UTF-8" standalone="no"?>
<!-- Created with Inkscape (http://www.inkscape.org/) -->

<svg
   width="98.954865mm"
   height="176.47708mm"
   viewBox="0 0 98.954865 176.47708"
   version="1.1"
   id="svg5"
   xmlns:xlink="http://www.w3.org/1999/xlink"
   xmlns="http://www.w3.org/2000/svg"
   xmlns:svg="http://www.w3.org/2000/svg">
  <defs
     id="defs2">
    <rect
       id="path-1-0"
       x="0.49867022"
       y="0.65121323"
       width="374.00266"
       height="667"
       rx="4" />
    <rect
       id="path-3-7"
       x="0"
       y="0"
       width="374.00266"
       height="64" />
    <filter
       x="0"
       y="0"
       width="1"
       height="1.0078125"
       filterUnits="objectBoundingBox"
       id="filter-4">
      <feOffset
         dx="0"
         dy="0.5"
         in="SourceAlpha"
         result="shadowOffsetOuter1"
         id="feOffset10783" />
      <feComposite
         in="shadowOffsetOuter1"
         in2="SourceAlpha"
         operator="out"
         result="shadowOffsetOuter1"
         id="feComposite10785" />
      <feColorMatrix
         values="0 0 0 0 0.698039216   0 0 0 0 0.698039216   0 0 0 0 0.698039216  0 0 0 1 0"
         type="matrix"
         in="shadowOffsetOuter1"
         id="feColorMatrix10787" />
    </filter>
  </defs>
  <g
     id="layer9"
     transform="translate(-538.76497,-388.84977)"
     style="display:inline">
    <g
       id="Contained-5"
       transform="matrix(0.26458333,0,0,0.26458333,538.63303,388.67747)"
       style="display:inline;fill:none;fill-rule:evenodd;stroke:none;stroke-width:1">
      <mask
         id="mask-2-7"
         fill="#ffffff">
        <use
           xlink:href="#path-1-0"
           id="use10792"
           x="0"
           y="0"
           width="100%"
           height="100%" />
      </mask>
      <rect
         stroke="#cbcbcb"
         stroke-width="0.5"
         x="0.74867022"
         y="0.90121323"
         width="373.50266"
         height="666.5"
         rx="4"
         id="rect10795" />
      <g
         id="Navigation-Bar/Back"
         mask="url(#mask-2-7)">
        <g
           transform="translate(0,1)"
           id="g10814">
          <g
             id="Bar"
             fill="none">
            <use
               fill="#000000"
               fill-opacity="1"
               filter="url(#filter-4)"
               xlink:href="#path-3-7"
               id="use10797"
               x="0"
               y="0"
               width="100%"
               height="100%" />
            <use
               fill-opacity="0.9"
               fill="#fafafa"
               fill-rule="evenodd"
               xlink:href="#path-3-7"
               id="use10799"
               x="0"
               y="0"
               width="100%"
               height="100%" />
          </g>
          <polygon
             id="Back-Chevron"
             fill="#666666"
             fill-rule="evenodd"
             points="18.949468,52.5 8.4773936,42 18.949468,31.5 20.944149,33.5 12.466755,42 20.944149,50.5 " />
          <text
             id="Back"
             fill="none"
             font-family="Helvetica"
             font-size="17px"
             font-weight="normal"
             letter-spacing="-0.41"><tspan
               x="30.917553"
               y="48"
               fill="#666666"
               id="tspan10803">Bac</tspan><tspan
               x="58.98101"
               y="48"
               fill="#666666"
               id="tspan10805">k</tspan></text>
          <text
             id="Edit"
             fill="none"
             font-family="Helvetica"
             font-size="17px"
             font-weight="normal"
             letter-spacing="-0.41"><tspan
               x="338.09842"
               y="48"
               fill="#666666"
               id="tspan10808">Edit</tspan></text>
          <text
             id="Title-Label"
             fill="none"
             font-family="TitilliumWeb-Regular, 'Titillium Web'"
             font-size="17px"
             font-weight="normal"
             letter-spacing="-0.41"><tspan
               x="172.45433"
               y="48"
               fill="#030303"
               id="tspan10811">Title</tspan></text>
        </g>
      </g>
      <g
         id="Status-Bar/Black/100%"
         mask="url(#mask-2-7)">
        <g
           transform="translate(0,1)"
           id="g10829">
          <path
             d="m 9.2253989,7.5 c 1.5147441,0 2.7426861,1.2312169 2.7426861,2.75 0,1.518783 -1.227942,2.75 -2.7426861,2.75 -1.5147437,0 -2.7426861,-1.231217 -2.7426861,-2.75 0,-1.5187831 1.2279424,-2.75 2.7426861,-2.75 z m 6.9813831,0 c 1.514744,0 2.742686,1.2312169 2.742686,2.75 0,1.518783 -1.227942,2.75 -2.742686,2.75 -1.514744,0 -2.742686,-1.231217 -2.742686,-2.75 0,-1.5187831 1.227942,-2.75 2.742686,-2.75 z m 6.981383,0 c 1.514744,0 2.742686,1.2312169 2.742686,2.75 0,1.518783 -1.227942,2.75 -2.742686,2.75 -1.514744,0 -2.742686,-1.231217 -2.742686,-2.75 0,-1.5187831 1.227942,-2.75 2.742686,-2.75 z m 6.981383,0 c 1.514744,0 2.742686,1.2312169 2.742686,2.75 0,1.518783 -1.227942,2.75 -2.742686,2.75 -1.514744,0 -2.742686,-1.231217 -2.742686,-2.75 0,-1.5187831 1.227942,-2.75 2.742686,-2.75 z m 6.981383,0 c 1.514744,0 2.742686,1.2312169 2.742686,2.75 0,1.518783 -1.227942,2.75 -2.742686,2.75 -1.514744,0 -2.742686,-1.231217 -2.742686,-2.75 0,-1.5187831 1.227942,-2.75 2.742686,-2.75 z"
             id="Mobile-Signal"
             fill="#030303"
             fill-rule="evenodd" />
          <text
             id="Carrier"
             fill="none"
             font-family="Helvetica"
             font-size="12px"
             font-weight="normal"><tspan
               x="43.88298"
               y="14.5"
               fill="#030303"
               id="tspan10818">WireKit</tspan></text>
          <path
             d="m 93.737596,11.468912 c 0.862499,0 1.634453,0.376534 2.151122,0.969592 v 0 L 93.772479,14.5 91.615856,12.405318 c 0.516318,-0.573884 1.275441,-0.936406 2.12174,-0.936406 z m 0,-2.984456 c 1.709318,0 3.248554,0.7072896 4.324402,1.836987 v 0 l -1.085979,1.057886 c -0.796866,-0.861094 -1.952531,-1.4026451 -3.238423,-1.4026451 -1.270527,0 -2.413921,0.5286871 -3.209705,1.3719161 v 0 l -1.08713,-1.055906 c 1.074491,-1.1129351 2.602064,-1.808238 4.296835,-1.808238 z m 0,-2.984456 c 2.55619,0 4.862428,1.0394367 6.495114,2.7068793 v 0 L 99.147476,9.2640427 C 97.793099,7.8655261 95.870348,6.992228 93.737596,6.992228 c -2.11902,0 -4.030734,0.8620885 -5.383649,2.2448664 v 0 L 87.267287,8.1816443 C 88.898487,6.528956 91.194325,5.5 93.737596,5.5 Z"
             id="Wi-Fi"
             fill="#030303"
             fill-rule="evenodd" />
          <text
             id="9:41-AM"
             fill="none"
             font-family="TitilliumWeb-Regular, 'Titillium Web'"
             font-size="12px"
             font-weight="normal"><tspan
               x="165.68333"
               y="15.5"
               fill="#030303"
               id="tspan10822">9:41 AM</tspan></text>
          <text
             id="100%"
             fill="none"
             font-family="TitilliumWeb-Regular, 'Titillium Web'"
             font-size="12px"
             font-weight="normal"><tspan
               x="314.21042"
               y="15.5"
               fill="#030303"
               id="tspan10825">100%</tspan></text>
          <path
             d="m 365.0154,5.5 c 0.83562,0 1.50721,0.6739472 1.50721,1.5053032 v 0 6.4893938 C 366.52261,14.331978 365.84781,15 365.0154,15 v 0 h -19.42575 c -0.83561,0 -1.5072,-0.673947 -1.5072,-1.505303 v 0 -6.4893938 C 344.08245,6.1680215 344.75725,5.5 345.58965,5.5 v 0 z m 0.003,0.5 h -19.43187 c -0.55531,0 -1.00547,0.4569969 -1.00547,1.0084406 v 6.4831184 c 0,0.556947 0.44786,1.008441 1.00547,1.008441 h 19.43187 c 0.55531,0 1.00548,-0.456997 1.00548,-1.008441 V 7.0084406 C 366.02394,6.4514942 365.57607,6 365.01846,6 Z m 0.001,0.5 c 0.27578,0 0.5054,0.2203189 0.5054,0.492096 v 0 6.515808 C 365.5248,13.783628 365.29852,14 365.0194,14 v 0 h -19.43469 c -0.27578,0 -0.50539,-0.220319 -0.50539,-0.492096 v 0 -6.515808 C 345.07979,6.716372 345.30606,6.5 345.58518,6.5 v 0 z m 2.74941,2 c 0.41599,0 0.74801,0.3323211 0.74801,0.74226 v 0 2.01548 c 0,0.406665 -0.3349,0.74226 -0.74801,0.74226 v 0 h -0.748 V 8.5 Z"
             id="Battery"
             fill="#030303"
             fill-rule="evenodd" />
        </g>
      </g>
    </g>
  </g>
</svg>
