<?xml version="1.0" encoding="UTF-8" standalone="no"?>
<!-- Created with Inkscape (http://www.inkscape.org/) -->

<svg
   width="849.86481mm"
   height="1138.8922mm"
   viewBox="0 0 849.86481 1138.8922"
   version="1.1"
   id="svg5"
   inkscape:version="1.1 (c4e8f9e, 2021-05-24)"
   sodipodi:docname="tmp14oisgqg"
   xmlns:inkscape="http://www.inkscape.org/namespaces/inkscape"
   xmlns:sodipodi="http://sodipodi.sourceforge.net/DTD/sodipodi-0.dtd"
   xmlns:xlink="http://www.w3.org/1999/xlink"
   xmlns="http://www.w3.org/2000/svg"
   xmlns:svg="http://www.w3.org/2000/svg">
  <sodipodi:namedview
     id="namedview7"
     pagecolor="#ffffff"
     bordercolor="#666666"
     borderopacity="1.0"
     inkscape:pageshadow="2"
     inkscape:pageopacity="0.0"
     inkscape:pagecheckerboard="0"
     inkscape:document-units="mm"
     showgrid="false"
     inkscape:zoom="0.09199118"
     inkscape:cx="1505.5791"
     inkscape:cy="2451.322"
     inkscape:window-width="1440"
     inkscape:window-height="811"
     inkscape:window-x="0"
     inkscape:window-y="23"
     inkscape:window-maximized="0"
     inkscape:current-layer="layer7"
     showborder="true"
     lock-margins="true"
     fit-margin-top="20"
     fit-margin-left="20"
     fit-margin-right="20"
     fit-margin-bottom="20"
     showguides="true"
     inkscape:guide-bbox="true" />
  <defs
     id="defs2">
    <path
       d="M 3.181716,0.27419317 C 1.5784924,1.1709661 0.49301007,2.8822541 0.49301007,4.8499933 V 47.457999 c 0,1.967739 1.08548233,3.679027 2.68870593,4.5758 V 0.27419317"
       id="path-1-3" />
    <path
       d="M 3.181716,0.27419317 C 1.5784924,1.1709661 0.49301007,2.8822541 0.49301007,4.8499933 V 47.457999 c 0,1.967739 1.08548233,3.679027 2.68870593,4.5758 V 0.27419317"
       id="path-3-0" />
    <path
       d="M 3.181716,0.27419317 C 1.5784924,1.1709661 0.49301007,2.8822541 0.49301007,4.8499933 V 47.457999 c 0,1.967739 1.08548233,3.679027 2.68870593,4.5758 V 0.27419317"
       id="path-5-5" />
    <path
       d="M 3.181716,0.43171983 C 1.5784924,1.3268799 0.49301007,3.0397807 0.49301007,5.0075199 V 47.615525 c 0,1.966127 1.08548233,3.679028 2.68870593,4.574187 V 0.43171983"
       id="path-7-2" />
    <path
       d="M 3.181716,0.43171983 C 1.5784924,1.3268799 0.49301007,3.0397807 0.49301007,5.0075199 V 47.615525 c 0,1.966127 1.08548233,3.679028 2.68870593,4.574187 V 0.43171983"
       id="path-9-3" />
    <path
       d="M 3.181716,0.43171983 C 1.5784924,1.3268799 0.49301007,3.0397807 0.49301007,5.0075199 V 47.615525 c 0,1.966127 1.08548233,3.679028 2.68870593,4.574187 V 0.43171983"
       id="path-11-8" />
    <path
       d="M 0.40107471,52.280035 C 2.0042983,51.383262 3.0897807,49.671974 3.0897807,47.704235 V 5.0962295 c 0,-1.9677392 -1.0854824,-3.6790272 -2.68870599,-4.57580012 V 52.280035"
       id="path-13-7" />
    <path
       d="M 68.948829,31.442967 H 15.723097 c -8.5967628,0 -15.59191439,-6.996764 -15.59191439,-15.593527 0,-8.5967619 6.99515159,-15.59030057 15.59191439,-15.59030057 h 53.225732 c 8.596762,0 15.590301,6.99353867 15.590301,15.59030057 0,8.596763 -6.993539,15.593527 -15.590301,15.593527"
       id="path-15-8" />
    <path
       d="M 154.58527,1.4741915 H 1.5935462 c 2.3387064,0.040322 4.7935417,0.085484 7.41128,0.1322579 H 147.1756 c 2.61613,-0.046774 5.07096,-0.091935 7.40967,-0.1322579"
       id="path-17-0" />
    <path
       d="M 154.58527,1.4741915 H 1.5935462 c 2.3387064,0.040322 4.7935417,0.085484 7.41128,0.1322579 H 147.1756 c 2.61613,-0.046774 5.07096,-0.091935 7.40967,-0.1322579"
       id="path-19-4" />
    <path
       d="M 154.58527,1.4741915 H 1.5935462 c 2.3387064,0.040322 4.7935417,0.085484 7.41128,0.1322579 H 147.1756 c 2.61613,-0.046774 5.07096,-0.091935 7.40967,-0.1322579"
       id="path-21-5" />
    <path
       d="M 154.58527,1.4741915 H 1.5935462 c 2.3387064,0.040322 4.7935417,0.085484 7.41128,0.1322579 H 147.1756 c 2.61613,-0.046774 5.07096,-0.091935 7.40967,-0.1322579"
       id="path-23-7" />
    <path
       d="M 154.58527,1.4741915 H 1.5935462 c 2.3387064,0.040322 4.7935417,0.085484 7.41128,0.1322579 H 147.1756 c 2.61613,-0.046774 5.07096,-0.091935 7.40967,-0.1322579"
       id="path-25-1" />
  </defs>
  <g
     inkscape:groupmode="layer"
     id="layer12"
     inkscape:label="android1"
     transform="translate(-3.4353907,2.156121)"
     style="display:inline">
    <g
       id="Android-dark"
       style="display:inline;fill:none;fill-rule:evenodd;stroke:none;stroke-width:1"
       transform="matrix(0.26458333,0,0,0.26458333,535.77117,683.29466)">
      <g
         id="S6-gray">
        <g
           id="Group-10"
           transform="translate(0,128.03208)">
          <g
             id="Group-3-0">
            <mask
               id="mask-2-6"
               fill="#ffffff">
              <use
                 xlink:href="#path-1-3"
                 id="use24334"
                 x="0"
                 y="0"
                 width="100%"
                 height="100%" />
            </mask>
            <use
               id="Clip-2"
               fill="#000000"
               xlink:href="#path-1-3"
               x="0"
               y="0"
               width="100%"
               height="100%" />
            <path
               d="M 3.181716,0.27419317 C 1.5784924,1.1709661 0.49301007,2.8822541 0.49301007,4.8499933 V 47.457999 c 0,1.967739 1.08548233,3.679027 2.68870593,4.5758 V 0.27419317"
               id="Fill-1-0"
               mask="url(#mask-2-6)" />
          </g>
          <g
             id="Group-6">
            <mask
               id="mask-4-3"
               fill="#ffffff">
              <use
                 xlink:href="#path-3-0"
                 id="use24340"
                 x="0"
                 y="0"
                 width="100%"
                 height="100%" />
            </mask>
            <use
               id="Clip-5"
               fill="#4a4a4a"
               xlink:href="#path-3-0"
               x="0"
               y="0"
               width="100%"
               height="100%" />
            <path
               d="M 3.181716,0.27419317 C 1.5784924,1.1709661 0.49301007,2.8822541 0.49301007,4.8499933 V 47.457999 c 0,1.967739 1.08548233,3.679027 2.68870593,4.5758 V 0.27419317"
               id="Fill-4"
               mask="url(#mask-4-3)" />
          </g>
          <g
             id="Group-9">
            <mask
               id="mask-6"
               fill="#ffffff">
              <use
                 xlink:href="#path-5-5"
                 id="use24346"
                 x="0"
                 y="0"
                 width="100%"
                 height="100%" />
            </mask>
            <use
               id="Clip-8"
               fill="#d8d8d8"
               xlink:href="#path-5-5"
               x="0"
               y="0"
               width="100%"
               height="100%" />
            <path
               d="M 3.181716,0.27419317 C 1.5784924,1.1709661 0.49301007,2.8822541 0.49301007,4.8499933 V 47.457999 c 0,1.967739 1.08548233,3.679027 2.68870593,4.5758 V 0.27419317"
               id="Fill-7-3"
               mask="url(#mask-6)" />
          </g>
        </g>
        <g
           id="Group-30"
           transform="translate(0,209.21476)">
          <g
             id="Group-23">
            <mask
               id="mask-8"
               fill="#ffffff">
              <use
                 xlink:href="#path-7-2"
                 id="use24353"
                 x="0"
                 y="0"
                 width="100%"
                 height="100%" />
            </mask>
            <g
               id="Clip-22" />
            <path
               d="M 3.181716,0.43171983 C 1.5784924,1.3268799 0.49301007,3.0397807 0.49301007,5.0075199 V 47.615525 c 0,1.966127 1.08548233,3.679028 2.68870593,4.574187 V 0.43171983"
               id="Fill-21"
               mask="url(#mask-8)" />
          </g>
          <g
             id="Group-26">
            <mask
               id="mask-10"
               fill="#ffffff">
              <use
                 xlink:href="#path-9-3"
                 id="use24359"
                 x="0"
                 y="0"
                 width="100%"
                 height="100%" />
            </mask>
            <use
               id="Clip-25"
               fill="#d8d8d8"
               xlink:href="#path-9-3"
               x="0"
               y="0"
               width="100%"
               height="100%" />
            <path
               d="M 3.181716,0.43171983 C 1.5784924,1.3268799 0.49301007,3.0397807 0.49301007,5.0075199 V 47.615525 c 0,1.966127 1.08548233,3.679028 2.68870593,4.574187 V 0.43171983"
               id="Fill-24"
               mask="url(#mask-10)" />
          </g>
          <g
             id="Group-29">
            <mask
               id="mask-12"
               fill="#ffffff">
              <use
                 xlink:href="#path-11-8"
                 id="use24365"
                 x="0"
                 y="0"
                 width="100%"
                 height="100%" />
            </mask>
            <g
               id="Clip-28" />
            <path
               d="M 3.181716,0.43171983 C 1.5784924,1.3268799 0.49301007,3.0397807 0.49301007,5.0075199 V 47.615525 c 0,1.966127 1.08548233,3.679028 2.68870593,4.574187 V 0.43171983"
               id="Fill-27"
               mask="url(#mask-12)" />
          </g>
        </g>
        <g
           id="Group-50"
           transform="translate(396.23601,294.62325)">
          <g
             id="Group-46"
             transform="translate(0.537634,0.075267)">
            <mask
               id="mask-14"
               fill="#ffffff">
              <use
                 xlink:href="#path-13-7"
                 id="use24372"
                 x="0"
                 y="0"
                 width="100%"
                 height="100%" />
            </mask>
            <use
               id="Clip-45"
               fill="#d8d8d8"
               xlink:href="#path-13-7"
               x="0"
               y="0"
               width="100%"
               height="100%" />
            <path
               d="M 0.40107471,52.280035 C 2.0042983,51.383262 3.0897807,49.671974 3.0897807,47.704235 V 5.0962295 c 0,-1.9677392 -1.0854824,-3.6790272 -2.68870599,-4.57580012 V 52.280035"
               id="Fill-44"
               mask="url(#mask-14)" />
          </g>
        </g>
        <path
           d="M 269.22489,801.41179 H 131.04767 l -14.81934,-0.25807 C 94.649331,800.7876 85.715472,800.63437 71.928395,799.72631 65.802597,799.31986 48.51875,797.67954 42.184888,794.99728 36.133283,792.44083 30.701033,788.77632 26.03491,784.11181 21.3704,779.44569 17.705889,774.01183 15.147828,767.96345 12.497832,761.69733 11.154286,755.04411 11.154286,748.18606 V 60.549915 c 0,-6.856443 1.343546,-13.509659 3.993542,-19.775779 C 17.705889,34.724144 21.3704,29.291893 26.03491,24.625771 30.69942,19.961261 36.133283,16.29675 42.184888,13.737076 48.528427,11.054822 65.805823,9.4161146 71.928395,9.0112764 85.723537,8.0999874 94.663847,7.9483747 116.26543,7.5822461 l 14.76772,-0.2564512 h 138.18529 l 14.78063,0.2564512 c 21.60158,0.3661286 30.54189,0.5177413 44.33703,1.4290303 6.12258,0.4048382 23.39997,2.0435456 29.74351,4.7257996 6.0516,2.559674 11.48547,6.224185 16.14998,10.888695 4.66451,4.666122 8.32902,10.098373 10.88708,16.148365 2.65,6.26612 3.99354,12.919336 3.99354,19.775779 V 748.18606 c 0,6.85805 -1.34354,13.51127 -3.99354,19.77739 -2.55806,6.04838 -6.22257,11.48224 -10.88708,16.14836 -4.66612,4.66451 -10.09999,8.32902 -16.14998,10.88547 -6.33386,2.68226 -23.61771,4.32258 -29.74351,4.72903 -13.78869,0.90806 -22.72093,1.06129 -44.29994,1.42741 l -14.81127,0.25807 M 131.04767,8.9386959 116.29124,9.1935342 C 94.718686,9.5612757 85.789666,9.7128884 72.034846,10.620952 c -8.404827,0.554838 -23.770935,2.296771 -29.22254,4.601606 -5.858056,2.479029 -11.119339,6.025798 -15.637075,10.543534 -4.517736,4.519348 -8.064505,9.779019 -10.543534,15.637075 -2.564512,6.064508 -3.86451,12.506434 -3.86451,19.146748 V 748.18606 c 0,6.64031 1.299998,13.08224 3.86451,19.14997 2.479029,5.85644 6.025798,11.11773 10.543534,15.63546 4.517736,4.51612 9.779019,8.0629 15.637075,10.54031 5.443541,2.30484 20.812874,4.04677 29.22254,4.60483 13.748368,0.90807 22.669324,1.05807 44.222524,1.42419 l 14.8032,0.25807 h 138.1482 l 14.79836,-0.25807 c 21.5532,-0.36612 30.47415,-0.51612 44.22252,-1.42419 8.40967,-0.55806 23.779,-2.29999 29.22254,-4.60483 5.85806,-2.47741 11.11934,-6.02419 15.63708,-10.54031 4.51773,-4.51773 8.0645,-9.77902 10.54353,-15.63546 2.56451,-6.06773 3.86451,-12.50966 3.86451,-19.14997 V 60.549915 c 0,-6.640314 -1.3,-13.08224 -3.86451,-19.146748 C 381.15377,35.545111 377.607,30.28544 373.08927,25.766092 368.57153,21.248356 363.31025,17.701587 357.45219,15.222558 352.00059,12.917723 336.63448,11.17579 328.22965,10.620952 314.47322,9.7128884 305.54581,9.5612757 283.97326,9.1935342 L 269.20393,8.9386959 H 131.04767"
           id="Fill-61"
           fill="#448592" />
        <path
           d="m 116.10414,808.41178 c -21.704809,-0.36774 -30.688667,-0.52258 -44.653164,-1.44355 -0.953224,-0.0613 -23.346742,-1.58387 -32.095117,-5.28547 -6.914506,-2.92258 -13.122562,-7.10967 -18.4532,-12.43708 C 15.572021,783.91343 11.388156,777.70376 8.4623539,770.79248 5.4333258,763.62636 3.8962312,756.02153 3.8962312,748.18606 V 60.549915 c 0,-7.832248 1.5370946,-15.437076 4.5661227,-22.601582 C 11.388156,31.033826 15.572021,24.824158 20.902659,19.49352 26.231684,14.164495 32.43974,9.979017 39.355859,7.0532146 48.117137,3.3467682 70.500977,1.8322541 71.449363,1.769351 85.423537,0.84677163 94.41546,0.69354604 116.14285,0.32419171 l 14.75966,-0.25483836 138.31593,-0.0016129 14.90321,0.25645126 c 21.72739,0.36935433 30.71931,0.52257992 44.69348,1.44515929 0.94839,0.062903 23.33223,1.5774172 32.0919,5.2838636 6.91773,2.9258024 13.12578,7.1112804 18.45481,12.4403054 5.33064,5.330638 9.51611,11.540306 12.4403,18.4532 3.02903,7.166119 4.56613,14.770947 4.56613,22.603195 V 748.18606 c 0,7.83547 -1.5371,15.4403 -4.56613,22.60319 -2.92419,6.91451 -7.10966,13.12418 -12.43869,18.4532 -5.33225,5.33064 -11.54031,9.51773 -18.45642,12.44031 -8.74677,3.7016 -31.14028,5.22418 -32.09028,5.28547 -13.96773,0.92097 -22.95158,1.07581 -44.65639,1.44355 l -14.86934,0.25806 H 131.04767 Z"
           id="Fill-62"
           fill="#baccd9" />
        <path
           d="M 96.113845,758.0812 H 78.388063 c -0.527418,0 -0.95645,0.42904 -0.95645,0.95807 v 0.95806 7.93063 0.95807 c 0,0.52903 0.429032,0.95806 0.95645,0.95806 h 17.725782 c 0.527419,0 0.958063,-0.42903 0.958063,-0.95806 v -0.95807 -7.93063 -0.95806 c 0,-0.52903 -0.430644,-0.95807 -0.958063,-0.95807 m -0.95645,3.24194 v 6.60482 H 79.344514 v -7.93063 h 15.812881 v 1.32581"
           id="Fill-81"
           fill="#ffffff" />
        <path
           d="m 99.918678,754.25379 -0.1,0.0194 -0.09839,-0.0194 H 82.923541 c -0.527419,0 -0.956451,0.42742 -0.956451,0.95484 v 0.95645 h 16.993525 v 9.57095 h 0.958063 c 0.527422,0 0.956452,-0.42903 0.956452,-0.95483 v -9.57257 c 0,-0.52742 -0.42903,-0.95484 -0.956452,-0.95484"
           id="Fill-82"
           fill="#ffffff" />
        <path
           d="m 320.21515,758.92475 h -7.24838 v -2.44677 l -7.45967,2.60161 c 0,0 -0.6758,0.19839 -0.6758,0.81613 0,0.63871 0.6758,0.85645 0.6758,0.85645 l 7.45967,2.59677 v -2.53709 h 7.24838 c 2.15806,0 3.91128,1.75806 3.91128,3.91612 0,2.15483 -1.75322,3.9129 -3.91128,3.9129 h -13.50482 v 1.88709 h 13.50482 c 3.20322,0 5.79999,-2.6 5.79999,-5.79999 0,-3.20322 -2.59677,-5.80322 -5.79999,-5.80322"
           id="Fill-83"
           fill="#ffffff" />
        <path
           d="m 227.55076,783.39891 h -53.22573 c -10.82096,0 -19.62417,-8.80483 -19.62417,-19.62578 0,-10.81772 8.80321,-19.62255 19.62417,-19.62255 h 53.22573 c 10.82095,0 19.62255,8.80483 19.62255,19.62255 0,10.82095 -8.8016,19.62578 -19.62255,19.62578 z m -53.22573,-37.63543 c -9.93064,0 -18.01127,8.08063 -18.01127,18.00965 0,9.93225 8.08063,18.01288 18.01127,18.01288 h 53.22573 c 9.93063,0 18.00965,-8.08063 18.00965,-18.01288 0,-9.92902 -8.07902,-18.00965 -18.00965,-18.00965 z"
           id="Fill-106"
           fill="#ffffff"
           opacity="0.488281" />
        <path
           d="m 301.9813,30.711246 c 0,4.899994 -3.97096,8.870956 -8.87095,8.870956 -4.9,0 -8.87096,-3.970962 -8.87096,-8.870956 0,-4.89838 3.97096,-8.870955 8.87096,-8.870955 4.89999,0 8.87095,3.972575 8.87095,8.870955"
           id="Fill-107"
           stroke="#ffffff" />
        <path
           d="m 131.4138,30.445118 c 0,3.862898 -3.13226,6.996764 -6.99677,6.996764 -3.86451,0 -6.99676,-3.133866 -6.99676,-6.996764 0,-3.864511 3.13225,-6.998378 6.99676,-6.998378 3.86451,0 6.99677,3.133867 6.99677,6.998378"
           id="Fill-119"
           stroke="#ffffff" />
        <path
           d="m 142.46378,37.441882 c -3.8629,0 -6.99676,-3.133866 -6.99676,-6.996764 0,-3.864511 3.13386,-6.998378 6.99676,-6.998378 3.86451,0 6.99676,3.133867 6.99676,6.998378 0,3.862898 -3.13225,6.996764 -6.99676,6.996764 z"
           id="Fill-122"
           stroke="#ffffff" />
        <path
           d="m 166.79762,35.617691 c -2.89032,0 -5.24193,-2.35161 -5.24193,-5.241928 0,-2.890319 2.35161,-5.241928 5.24193,-5.241928 h 67.60797 c 2.89032,0 5.24193,2.351609 5.24193,5.241928 0,2.890318 -2.35161,5.241928 -5.24193,5.241928 h -67.60797"
           id="Fill-125"
           stroke="#ffffff" />
        <g
           id="Group-149"
           transform="translate(158.60193,747.92369)">
          <mask
             id="mask-16"
             fill="#ffffff">
            <use
               xlink:href="#path-15-8"
               id="use24389"
               x="0"
               y="0"
               width="100%"
               height="100%" />
          </mask>
          <g
             id="Clip-148" />
          <path
             d="M 68.948829,31.442967 H 15.723097 c -8.5967628,0 -15.59191439,-6.996764 -15.59191439,-15.593527 0,-8.5967619 6.99515159,-15.59030057 15.59191439,-15.59030057 h 53.225732 c 8.596762,0 15.590301,6.99353867 15.590301,15.59030057 0,8.596763 -6.993539,15.593527 -15.590301,15.593527"
             id="Fill-147"
             mask="url(#mask-16)" />
        </g>
        <g
           id="Group-218"
           transform="translate(122.04284,798.99889)">
          <g
             id="Group-205">
            <mask
               id="mask-18"
               fill="#ffffff">
              <use
                 xlink:href="#path-17-0"
                 id="use24395"
                 x="0"
                 y="0"
                 width="100%"
                 height="100%" />
            </mask>
            <g
               id="Clip-204" />
            <path
               d="M 154.58527,1.4741915 H 1.5935462 c 2.3387064,0.040322 4.7935417,0.085484 7.41128,0.1322579 H 147.1756 c 2.61613,-0.046774 5.07096,-0.091935 7.40967,-0.1322579"
               id="Fill-203"
               mask="url(#mask-18)" />
          </g>
          <g
             id="Group-208">
            <mask
               id="mask-20"
               fill="#ffffff">
              <use
                 xlink:href="#path-19-4"
                 id="use24401"
                 x="0"
                 y="0"
                 width="100%"
                 height="100%" />
            </mask>
            <g
               id="Clip-207" />
            <path
               d="M 154.58527,1.4741915 H 1.5935462 c 2.3387064,0.040322 4.7935417,0.085484 7.41128,0.1322579 H 147.1756 c 2.61613,-0.046774 5.07096,-0.091935 7.40967,-0.1322579"
               id="Fill-206"
               mask="url(#mask-20)" />
          </g>
          <g
             id="Group-211">
            <mask
               id="mask-22"
               fill="#ffffff">
              <use
                 xlink:href="#path-21-5"
                 id="use24407"
                 x="0"
                 y="0"
                 width="100%"
                 height="100%" />
            </mask>
            <g
               id="Clip-210" />
            <path
               d="M 154.58527,1.4741915 H 1.5935462 c 2.3387064,0.040322 4.7935417,0.085484 7.41128,0.1322579 H 147.1756 c 2.61613,-0.046774 5.07096,-0.091935 7.40967,-0.1322579"
               id="Fill-209"
               mask="url(#mask-22)" />
          </g>
          <g
             id="Group-214">
            <mask
               id="mask-24"
               fill="#ffffff">
              <use
                 xlink:href="#path-23-7"
                 id="use24413"
                 x="0"
                 y="0"
                 width="100%"
                 height="100%" />
            </mask>
            <g
               id="Clip-213" />
            <path
               d="M 154.58527,1.4741915 H 1.5935462 c 2.3387064,0.040322 4.7935417,0.085484 7.41128,0.1322579 H 147.1756 c 2.61613,-0.046774 5.07096,-0.091935 7.40967,-0.1322579"
               id="Fill-212"
               mask="url(#mask-24)" />
          </g>
          <g
             id="Group-217">
            <mask
               id="mask-26"
               fill="#ffffff">
              <use
                 xlink:href="#path-25-1"
                 id="use24419"
                 x="0"
                 y="0"
                 width="100%"
                 height="100%" />
            </mask>
            <g
               id="Clip-216" />
            <path
               d="M 154.58527,1.4741915 H 1.5935462 c 2.3387064,0.040322 4.7935417,0.085484 7.41128,0.1322579 H 147.1756 c 2.61613,-0.046774 5.07096,-0.091935 7.40967,-0.1322579"
               id="Fill-215"
               mask="url(#mask-26)" />
          </g>
        </g>
        <path
           d="m 319.82966,799.4134 c -8.41934,0.42097 -16.38062,0.59678 -29.08383,0.81936 -0.005,0 -0.0129,0 -0.0194,0.002 12.70966,-0.22258 20.679,-0.39838 29.10318,-0.82097 m 0.05,-0.002 h -0.0129 0.0129"
           id="Fill-219"
           fill="#041326" />
      </g>
      <rect
         id="Rectangle-7"
         fill="#ffffff"
         x="20"
         y="76"
         width="360"
         height="640" />
    </g>
  </g>
</svg>
